<svg xmlns="http://www.w3.org/2000/svg" viewBox="0 0 54.58 80.41">
  <defs>
    <style>
      .af936f29-4e47-4b5a-8fe8-3924086c2dcd {
        fill: #fff;
      }
    </style>
  </defs>
  <g id="a448486f-c66b-4306-8c6a-8ce87cea788a" data-name="Layer 2">
    <g id="b8d3a1a2-e2cb-44ef-994d-1ceae94aa994" data-name="Layer 1">
      <g>
        <path class="af936f29-4e47-4b5a-8fe8-3924086c2dcd" d="M28.44,55.56c-1.16-.12-2.33-.18-3.47-.36-1.71-.26-3.41-.59-5.11-.9-.75-.14-1.49-.28-2.22-.44a10.87,10.87,0,0,1-2.79-1.12,29.79,29.79,0,0,1-6.53-5,36,36,0,0,1-4-4.68A29.88,29.88,0,0,1,2,39.21,10.1,10.1,0,0,1,1,36.35c-.14-.8-.24-1.61-.34-2.43-.13-1-.26-2-.37-3C.17,30.25.11,29.62.08,29,0,28.08,0,27.16,0,26.25a23.79,23.79,0,0,1,.4-4.46,21.16,21.16,0,0,1,2.79-7.32,29.93,29.93,0,0,1,4-5.25c1-1.09,2.09-2.15,3.19-3.16a21.15,21.15,0,0,1,4.43-3A25.63,25.63,0,0,1,19.22,1.2,26.68,26.68,0,0,1,23.06.32,28.19,28.19,0,0,1,28.49,0a27.44,27.44,0,0,1,3.62.39,24.17,24.17,0,0,1,3.94,1c.81.3,1.59.68,2.38,1.05.53.25,1,.55,1.57.81a25.2,25.2,0,0,1,7.08,5.35,26.14,26.14,0,0,1,3.72,5,27.42,27.42,0,0,1,3.75,15.06c0,1.11-.09,2.21-.19,3.32a22.33,22.33,0,0,1-1.56,6.53,23.93,23.93,0,0,1-4.27,6.77,32.56,32.56,0,0,1-6,5.25A36.59,36.59,0,0,1,38,53.24a21.53,21.53,0,0,1-5.64,1.94,19.26,19.26,0,0,1-3.87.32v.06M29.06,1l-2.58.11a26.51,26.51,0,0,0-3.68.36A10.68,10.68,0,0,0,20.87,2c-.74.28-1.44.66-2.16,1L14.94,4.74A7.13,7.13,0,0,0,12.7,6a2.78,2.78,0,0,1-.27.21c-1.11.86-2.26,1.67-3.32,2.58A21.26,21.26,0,0,0,4.75,14,23.39,23.39,0,0,0,2.2,19.9a25.45,25.45,0,0,0-.88,5.34,25.94,25.94,0,0,0,0,4c.12,1.13.27,2.25.46,3.36a30.65,30.65,0,0,0,1.84,6.22,4.55,4.55,0,0,0,.4.83l3.82,5.36a9.9,9.9,0,0,0,.83,1.1,23.7,23.7,0,0,0,2.89,2.49,27,27,0,0,0,5.52,3.18A25.87,25.87,0,0,0,23,53.54a27.77,27.77,0,0,0,4.06.4,21,21,0,0,0,3.27-.14c1.05-.14,2.1-.27,3.13-.47a21.16,21.16,0,0,0,7.11-2.87,26.26,26.26,0,0,0,4.59-3.61,29,29,0,0,0,4.21-5.23A27.84,27.84,0,0,0,52,36.08a22.07,22.07,0,0,0,1.08-4.23,4.13,4.13,0,0,1,1-2.18.41.41,0,0,0,.11-.23,4.21,4.21,0,0,0,0-.5,22.46,22.46,0,0,0-.11-4.1c-.13-1-.27-2.05-.47-3.06a24.79,24.79,0,0,0-1.76-5.43,27.18,27.18,0,0,0-2.82-4.87,26.78,26.78,0,0,0-4.82-5.1,29.3,29.3,0,0,0-3-2.14,6,6,0,0,0-1.63-.73c-.57-.14-1.14-.29-1.7-.46a3.73,3.73,0,0,1-1.68-.76A1.2,1.2,0,0,0,36,2.14a8.21,8.21,0,0,0-3-.88A37.21,37.21,0,0,0,29.06,1"/>
        <path class="af936f29-4e47-4b5a-8fe8-3924086c2dcd" d="M30.42,78.6a3.5,3.5,0,0,1-1,1.59,1.31,1.31,0,0,1-1.53-.07,6,6,0,0,1-1.32-1.2c-1-1.1-1.9-2.23-2.87-3.32a9.27,9.27,0,0,0-2.31-1.92,3,3,0,0,0-1.79-.39l-.53,0c-.17,0-.24.07-.23.25,0,.75.05,1.51.12,2.26s.16,1.65.28,2.47a7.3,7.3,0,0,0,.33,1.1c0,.1,0,.16-.07.21a5.11,5.11,0,0,1-1.87.55,1.57,1.57,0,0,1-.52-.08.86.86,0,0,1-.62-.88c0-.53,0-1.07,0-1.6,0-.86.09-1.72.11-2.57.05-2.3.11-4.59.11-6.89,0-1.25-.1-2.5-.2-3.75a6.77,6.77,0,0,0-.52-2.22l.91,0,3.56-.19a9.14,9.14,0,0,1,3.64.38A4.67,4.67,0,0,1,27,64.89a5.2,5.2,0,0,1,.36,2.37,5.74,5.74,0,0,1-.67,2.56,5.59,5.59,0,0,1-2,2.05c-.39.24-.8.43-1.2.64l-.21.11.5.27a8.88,8.88,0,0,1,1.84,1.68A24.39,24.39,0,0,0,29,77.85a4.38,4.38,0,0,0,1.4.75M18.8,69.52h0c0,.69,0,1.37,0,2.06,0,.18.05.25.24.25a9.67,9.67,0,0,0,2.4-.22,4.42,4.42,0,0,0,2.82-1.87,4.55,4.55,0,0,0,.64-3.09A2.94,2.94,0,0,0,22.72,64a6.68,6.68,0,0,0-3.52-.1c-.14,0-.18.08-.19.22l-.21,5.36"/>
        <path class="af936f29-4e47-4b5a-8fe8-3924086c2dcd" d="M46.77,61.8A3.35,3.35,0,0,1,48,62a1,1,0,0,1,.67,1.33,7.7,7.7,0,0,1-.51,1.09c0,.11-.14.08-.23.06a9.29,9.29,0,0,0-1.36-.33,4.26,4.26,0,0,0-2.89.59A2.42,2.42,0,0,0,42.61,67a3.14,3.14,0,0,0,1.19,2.26c.63.57,1.29,1.11,1.91,1.69a10.38,10.38,0,0,1,1.92,2.21,3.59,3.59,0,0,1,.6,1.58,4,4,0,0,1-.58,2.47,6.09,6.09,0,0,1-4.11,3,5.9,5.9,0,0,1-2.61.07,1.3,1.3,0,0,1-1.09-1.65,6.52,6.52,0,0,1,.4-1c0-.14.13-.14.25-.08a4.92,4.92,0,0,0,3.2.41A3,3,0,0,0,45.33,77a2.33,2.33,0,0,0,.32-2.48,5.44,5.44,0,0,0-1.35-1.73c-.63-.57-1.3-1.1-1.93-1.67a8.74,8.74,0,0,1-1.65-2,3.51,3.51,0,0,1-.28-3,5.85,5.85,0,0,1,2.17-2.83,7.47,7.47,0,0,1,3.27-1.44c.29-.05.59-.05.89-.08"/>
        <path class="af936f29-4e47-4b5a-8fe8-3924086c2dcd" d="M32.79,62.61a5.14,5.14,0,0,1,1.74-.6,1.78,1.78,0,0,1,.89.06.68.68,0,0,1,.45.44,3.39,3.39,0,0,1,.18,1.3c0,.66-.07,1.33-.1,2-.13,2.61-.2,5.23-.15,7.85,0,1.19.09,2.38.19,3.57a6.89,6.89,0,0,0,.58,2.32c-.32.14-.61.3-.92.4a3.24,3.24,0,0,1-1.45.21.78.78,0,0,1-.78-.67,10.41,10.41,0,0,1-.12-1.36c0-.62.06-1.23.08-1.84,0-1.22.07-2.43.09-3.65,0-1.53.06-3,0-4.58,0-1.13-.1-2.25-.19-3.37a6.07,6.07,0,0,0-.5-2s0,0,0-.07"/>
        <path class="af936f29-4e47-4b5a-8fe8-3924086c2dcd" d="M12,79.53a3.92,3.92,0,0,1-1.5.57,3.55,3.55,0,0,1-.86,0,.78.78,0,0,1-.73-.58,4.25,4.25,0,0,1-.14-1.46c0-1.25.12-2.5.14-3.75q.06-3.5.06-7a15.62,15.62,0,0,0-.33-3.54c-.09-.41-.23-.81-.35-1.24a5.2,5.2,0,0,1,1.26-.51A2.71,2.71,0,0,1,10.6,62c.46.09.7.28.76.74a11.71,11.71,0,0,1,.08,1.57c0,.58,0,1.16-.07,1.74-.06,2-.14,4-.17,5.92,0,1.2,0,2.39.07,3.59a14.42,14.42,0,0,0,.35,2.85c.09.37.21.73.33,1.12"/>
        <path class="af936f29-4e47-4b5a-8fe8-3924086c2dcd" d="M27.73,9.28c.06.38.15.72.18,1.07.11,1,.21,2,.28,3s.12,2.11.16,3.16c.06,1.92.14,3.84.15,5.76q.06,5.93.06,11.86c0,1.93,0,3.86-.11,5.79,0,1.29-.12,2.58-.21,3.87-.06.73-.16,1.45-.24,2.17,0,.15-.08.21-.23.22-.38,0-.75.06-1.13,0a.71.71,0,0,1-.77-.68,14.4,14.4,0,0,1-.16-2c0-5.65,0-11.3,0-16.95,0-1.41,0-2.82,0-4.24q0-3.6-.08-7.19c0-.72-.06-1.44-.06-2.15a6.08,6.08,0,0,1,.21-1.75,3,3,0,0,1,1.59-1.82l.4-.19"/>
      </g>
    </g>
  </g>
</svg>
